<?xml version="1.0" encoding="UTF-8" standalone="no"?>
<!-- Generator: Adobe Illustrator 14.0.0, SVG Export Plug-In  -->

<svg
   xmlns:dc="http://purl.org/dc/elements/1.1/"
   xmlns:cc="http://creativecommons.org/ns#"
   xmlns:rdf="http://www.w3.org/1999/02/22-rdf-syntax-ns#"
   xmlns:svg="http://www.w3.org/2000/svg"
   xmlns="http://www.w3.org/2000/svg"
   xmlns:sodipodi="http://sodipodi.sourceforge.net/DTD/sodipodi-0.dtd"
   xmlns:inkscape="http://www.inkscape.org/namespaces/inkscape"
   version="1.1"
   x="0px"
   y="0px"
   width="656"
   height="160"
   viewBox="-0.424 -0.244 656 160"
   enable-background="new -0.424 -0.244 758 171"
   xml:space="preserve"
   id="svg2"
   inkscape:version="0.48.4 r9939"
   sodipodi:docname="mate-love.svg"><metadata
     id="metadata24"><rdf:RDF><cc:Work
         rdf:about=""><dc:format>image/svg+xml</dc:format><dc:type
           rdf:resource="http://purl.org/dc/dcmitype/StillImage" /><dc:title></dc:title></cc:Work></rdf:RDF></metadata><sodipodi:namedview
     pagecolor="#ffffff"
     bordercolor="#666666"
     borderopacity="1"
     objecttolerance="10"
     gridtolerance="10"
     guidetolerance="10"
     inkscape:pageopacity="0"
     inkscape:pageshadow="2"
     inkscape:window-width="1364"
     inkscape:window-height="701"
     id="namedview22"
     showgrid="false"
     inkscape:snap-bbox="true"
     inkscape:bbox-paths="true"
     inkscape:bbox-nodes="true"
     inkscape:snap-bbox-midpoints="true"
     inkscape:snap-bbox-edge-midpoints="true"
     inkscape:zoom="0.5"
     inkscape:cx="894.98903"
     inkscape:cy="69.788887"
     inkscape:window-x="0"
     inkscape:window-y="27"
     inkscape:window-maximized="1"
     inkscape:current-layer="svg2"><inkscape:grid
       type="xygrid"
       id="grid3086"
       empspacing="4"
       visible="true"
       enabled="true"
       snapvisiblegridlinesonly="true" /></sodipodi:namedview><defs
     id="defs4"><filter
       inkscape:collect="always"
       id="filter4075"
       x="-0.040341077"
       width="1.0806822"
       y="-0.21677253"
       height="1.4335451"><feGaussianBlur
         inkscape:collect="always"
         stdDeviation="0.2342724"
         id="feGaussianBlur4077" /></filter><filter
       inkscape:collect="always"
       id="filter4079"
       x="-0.16136431"
       width="1.3227286"
       y="-0.86709013"
       height="2.7341803"><feGaussianBlur
         inkscape:collect="always"
         stdDeviation="0.93708959"
         id="feGaussianBlur4081" /></filter></defs><g
     id="g3911"
     transform="translate(45.999996,-23.000001)"><g
       id="g3896"><g
         id="g3070"
         transform="matrix(2,0,0,2,-186.99001,-64.94708)"><path
           sodipodi:nodetypes="czc"
           id="path5667"
           d="m 204.03952,71.053153 c 0,0 5.14061,5.035338 5.157,12.720854 0.0165,7.751769 -5.35535,12.985871 -5.35535,12.985871"
           style="opacity:0.19444442;fill:none;stroke:#ffffff;stroke-width:1px;stroke-linecap:round;stroke-linejoin:miter;stroke-opacity:1"
           inkscape:connector-curvature="0" /><path
           sodipodi:nodetypes="czc"
           id="path5669"
           d="m 196.89905,76.220999 c 0,0 3.68658,2.501111 3.63635,7.685516 -0.0496,5.118158 -3.63635,7.28799 -3.63635,7.28799"
           style="opacity:0.18981479;fill:none;stroke:#ffffff;stroke-width:1px;stroke-linecap:round;stroke-linejoin:miter;stroke-opacity:1"
           inkscape:connector-curvature="0" /><path
           id="path5070"
           d="m 169.3164,70.953966 21.63774,12.770269 -21.65432,12.780053 0.0166,-25.550322 z"
           style="fill:#87a556;fill-opacity:1;fill-rule:evenodd;stroke:#5a6943;stroke-width:0.99999988px;stroke-linecap:butt;stroke-linejoin:miter;stroke-opacity:1"
           inkscape:connector-curvature="0" /><path
           sodipodi:nodetypes="cccc"
           id="path5665"
           d="m 170.32493,72.75908 18.52258,10.967668 -18.53677,10.89051 0.0142,-21.858178 z"
           style="opacity:0.18055558;fill:none;stroke:#eeeeec;stroke-width:0.99999988px;stroke-linecap:butt;stroke-linejoin:miter;stroke-opacity:1"
           inkscape:connector-curvature="0" /><path
           sodipodi:nodetypes="czc"
           id="path5689"
           d="m 204.43653,70.542497 c 0,0 5.4271,5.46394 5.4271,13.24865 0,7.850944 -5.4271,13.182407 -5.4271,13.182407"
           style="opacity:0.32407406;fill:none;stroke:#ffffff;stroke-width:1px;stroke-linecap:round;stroke-linejoin:miter;stroke-opacity:1"
           inkscape:connector-curvature="0" /><path
           sodipodi:nodetypes="czc"
           id="path5691"
           d="m 199.58823,76.355022 c 0,0 2.77973,2.878431 2.77973,7.220514 0,4.27587 -2.51499,7.220514 -2.51499,7.220514"
           style="opacity:0.32407406;fill:none;stroke:#ffffff;stroke-width:1px;stroke-linecap:round;stroke-linejoin:miter;stroke-opacity:1"
           inkscape:connector-curvature="0" /><path
           id="path5067"
           d="m 211.26619,83.851541 c 0,-11.316001 -9.17,-20.5 -20.46875,-20.5 -6.52421,0 -12.31347,3.077145 -16.0625,7.84375 l 2.5625,1.625 c 3.1985,-3.914761 8.0855,-6.40625 13.53125,-6.40625 9.6255,0 17.4375,7.812 17.4375,17.4375 0,9.6255 -7.812,17.437499 -17.4375,17.437499 -5.43005,0 -10.30114,-2.479669 -13.5,-6.374999 l -2.5625,1.625 c 3.74992,4.746869 9.52279,7.812499 16.03125,7.812499 11.29875,0 20.46875,-9.183998 20.46875,-20.499999 z"
           style="fill:#87a556;fill-opacity:1;stroke:#5a6943;stroke-width:1;stroke-linecap:round;stroke-linejoin:round;stroke-miterlimit:4;stroke-opacity:1;stroke-dasharray:none;stroke-dashoffset:0"
           inkscape:connector-curvature="0" /><path
           id="path5648"
           d="m 203.32869,83.882791 c 0,-6.91725 -5.614,-12.53125 -12.53125,-12.53125 -3.68275,0 -6.98785,1.592947 -9.28125,4.125 l 2.65625,1.65625 c 1.7085,-1.687387 4.04421,-2.71875 6.625,-2.71875 5.22675,0 9.46875,4.27 9.46875,9.53125 0,5.261251 -4.242,9.53125 -9.46875,9.53125 -2.62889,10e-7 -5.00255,-1.069255 -6.71875,-2.8125 l -2.5625,1.625 c 2.2934,2.532054 5.5985,4.125001 9.28125,4.125 6.91725,0 12.53125,-5.614 12.53125,-12.53125 z"
           style="fill:#87a556;fill-opacity:1;stroke:#5a6943;stroke-width:1;stroke-linecap:round;stroke-linejoin:round;stroke-miterlimit:4;stroke-opacity:1;stroke-dasharray:none;stroke-dashoffset:0"
           inkscape:connector-curvature="0" /><path
           sodipodi:nodetypes="cscsc"
           id="path5664"
           d="m 176.32824,96.726541 c 3.56055,4.071769 8.32653,6.562499 14.45318,6.562499 10.7211,0 19.42227,-8.721998 19.42227,-19.468749 0,-10.74675 -8.70117,-19.46875 -19.42227,-19.46875 -6.15792,0 -10.8311,2.514172 -14.45273,6.6875"
           style="opacity:0.33333333;fill:none;stroke:#eeeeec;stroke-width:1.00000012;stroke-linecap:round;stroke-linejoin:round;stroke-miterlimit:4;stroke-opacity:1;stroke-dasharray:none;stroke-dashoffset:0"
           inkscape:connector-curvature="0" /><path
           sodipodi:nodetypes="cscsc"
           id="path5677"
           d="m 183.10994,92.507791 c 2.16441,1.898506 4.33116,2.843749 7.625,2.84375 6.36525,0 11.53125,-5.152 11.53125,-11.5 0,-6.348 -5.166,-11.5 -11.53125,-11.5 -3.30973,0 -5.55265,1.207783 -7.65625,3.125"
           style="opacity:0.33333333;fill:none;stroke:#eeeeec;stroke-width:1;stroke-linecap:round;stroke-linejoin:round;stroke-miterlimit:4;stroke-opacity:1;stroke-dasharray:none;stroke-dashoffset:0"
           inkscape:connector-curvature="0" /></g><g
         id="g3125"><rect
           ry="0.60822743"
           rx="0.53581941"
           y="54.756001"
           x="145.576"
           height="96"
           width="96"
           id="rect3123"
           style="opacity:0.5;color:#000000;fill:none;stroke:none;stroke-width:2;marker:none;visibility:visible;display:inline;overflow:visible;enable-background:accumulate" /></g></g></g><g
     id="g3936"
     transform="translate(573,110)"><path
       style="fill:#cd3232;fill-opacity:1;stroke:none;display:inline;enable-background:new"
       sodipodi:nodetypes="cscsscccccc"
       id="path4"
       d="m -131.424,-43.674556 c 0,-12.4497 -10.12452,-22.54188 -22.6155,-22.54188 -8.22792,0 -15.42738,4.38036 -19.3839,10.9284 -3.95652,-6.5481 -11.15718,-10.9284 -19.3851,-10.9284 -12.49098,0 -22.6155,10.09218 -22.6155,22.54188 0,6.47808 2.74662,12.31434 7.13718,16.42596 l -0.006,0 34.35036,32.9770252 35.39202,-32.9770252 -0.012,0 c 4.39116,-4.11102 7.13598,-9.94728 7.13598,-16.42596"
       inkscape:connector-curvature="0" /><rect
       ry="0.72987294"
       rx="0.79136407"
       y="-78.244003"
       x="-221.424"
       height="96"
       width="96"
       id="rect3934"
       style="opacity:0.5;color:#000000;fill:none;stroke:none;stroke-width:2;marker:none;visibility:visible;display:inline;overflow:visible;enable-background:accumulate" /></g><g
     id="g3942"
     transform="translate(294.00001,72.999999)"><g
       transform="matrix(0.92662048,0,0,0.92662048,-874.20279,-35.244)"
       id="g3082"><circle
         style="fill:#dd4814"
         sodipodi:ry="45.326"
         sodipodi:rx="45.326"
         sodipodi:cy="45.326"
         sodipodi:cx="712.02698"
         d="m 757.35298,45.326 c 0,25.032859 -20.29314,45.326 -45.326,45.326 -25.03286,0 -45.326,-20.293141 -45.326,-45.326 0,-25.032858 20.29314,-45.326 45.326,-45.326 25.03286,0 45.326,20.293142 45.326,45.326 z"
         cx="712.02698"
         cy="45.326"
         r="45.326"
         id="circle6" /><path
         style="fill:#ffffff"
         inkscape:connector-curvature="0"
         d="m 681.207,39.273 c -3.344,0 -6.053,2.709 -6.053,6.053 0,3.342 2.709,6.051 6.053,6.051 3.342,0 6.051,-2.709 6.051,-6.051 -0.001,-3.344 -2.71,-6.053 -6.051,-6.053 z m 43.207,27.504 c -2.895,1.672 -3.887,5.371 -2.215,8.264 1.67,2.895 5.369,3.887 8.264,2.215 2.895,-1.67 3.887,-5.369 2.215,-8.264 -1.671,-2.892 -5.372,-3.885 -8.264,-2.215 z M 694.351,45.326 c 0,-5.98 2.971,-11.264 7.516,-14.463 l -4.424,-7.41 c -5.295,3.539 -9.234,8.947 -10.871,15.281 1.91,1.559 3.133,3.932 3.133,6.592 0,2.658 -1.223,5.031 -3.133,6.59 1.635,6.336 5.574,11.744 10.871,15.283 l 4.424,-7.412 c -4.545,-3.197 -7.516,-8.48 -7.516,-14.461 z m 17.676,-17.678 c 9.234,0 16.811,7.08 17.605,16.109 l 8.623,-0.127 c -0.424,-6.666 -3.336,-12.65 -7.811,-17.051 -2.301,0.869 -4.959,0.736 -7.256,-0.588 -2.301,-1.328 -3.744,-3.568 -4.139,-6 -2.236,-0.617 -4.59,-0.955 -7.023,-0.955 -4.184,0 -8.139,0.982 -11.65,2.721 l 4.205,7.535 c 2.262,-1.052 4.786,-1.644 7.446,-1.644 z m 0,35.354 c -2.66,0 -5.184,-0.592 -7.445,-1.645 l -4.205,7.535 c 3.512,1.74 7.467,2.723 11.65,2.723 2.434,0 4.787,-0.338 7.023,-0.957 0.395,-2.432 1.838,-4.67 4.139,-6 2.299,-1.326 4.955,-1.457 7.256,-0.588 4.475,-4.4 7.387,-10.385 7.811,-17.051 l -8.625,-0.127 c -0.794,9.032 -8.37,16.11 -17.604,16.11 z m 12.385,-39.131 c 2.895,1.672 6.594,0.682 8.264,-2.213 1.672,-2.895 0.682,-6.594 -2.213,-8.266 -2.895,-1.67 -6.594,-0.678 -8.266,2.217 -1.67,2.893 -0.678,6.592 2.215,8.262 z"
         id="path8" /></g><rect
       ry="0.71497756"
       rx="0.6438216"
       y="-41.243999"
       x="-262.42401"
       height="96"
       width="96"
       id="rect3940"
       style="opacity:0.5;color:#000000;fill:none;stroke:none;stroke-width:2;marker:none;visibility:visible;display:inline;overflow:visible;enable-background:accumulate" /></g><g
     id="g3982"
     transform="translate(49.666668,-1.9348913)"><g
       id="g6492"
       transform="matrix(0.58333325,0,0,0.58333325,479.24267,-485.5203)"><path
         style="fill:#87a556;fill-opacity:1"
         inkscape:connector-curvature="0"
         d="m 152,972.36316 c 0,39.76274 -32.23625,71.99904 -72.00048,71.99904 C 40.23478,1044.3622 8,1012.1264 8,972.36316 8,932.59741 40.23428,900.36218 79.99902,900.36218 119.76325,900.36218 152,932.59741 152,972.36316 z"
         id="path3171-7-3-3-8-7-0-9-6-8" /><path
         style="font-size:medium;font-style:normal;font-variant:normal;font-weight:normal;font-stretch:normal;text-indent:0;text-align:start;text-decoration:none;line-height:normal;letter-spacing:normal;word-spacing:normal;text-transform:none;direction:ltr;block-progression:tb;writing-mode:lr-tb;text-anchor:start;baseline-shift:baseline;color:#000000;fill:#ffffff;fill-opacity:1;stroke:none;stroke-width:1.17073166;marker:none;visibility:visible;display:inline;overflow:visible;enable-background:accumulate;font-family:Sans;-inkscape-font-specification:Sans"
         d="m 80,35.96875 c -18.130948,0 -33.732614,11.046915 -40.46875,26.75 l 5.1875,3.0625 c 5.610729,-13.948556 19.288101,-23.75 35.28125,-23.75 2.057257,0 4.067968,0.182426 6.03125,0.5 l 0,-6.125 C 84.057071,36.132235 82.051262,35.96875 80,35.96875 z m 18.03125,3.875 L 98,46.5625 c 0.999796,0.537025 1.963014,1.128674 2.90625,1.75 l 5.6875,-3.34375 c -2.64279,-2.011763 -5.50216,-3.744648 -8.5625,-5.125 z M 80,50.9375 c -12.629174,0 -23.430247,8.155699 -27.40625,19.46875 l 5.375,3.1875 C 60.727993,64.010546 69.496914,57.03125 80,57.03125 c 2.076725,0 4.087016,0.269821 6,0.78125 l 0,-6.21875 C 84.061579,51.181998 82.053936,50.9375 80,50.9375 z m 35.3125,2.78125 -5.21875,3.09375 c 4.93487,6.40582 7.875,14.448256 7.875,23.1875 0,8.906514 -3.04972,17.066843 -8.15625,23.53125 l 5.21875,3.09375 c 5.63386,-7.399938 9,-16.637433 9,-26.625 0,-9.834307 -3.24216,-18.938966 -8.71875,-26.28125 z M 102.28125,61.4375 97,64.53125 c 3.70804,4.077536 5.96875,9.49165 5.96875,15.46875 0,6.151805 -2.40631,11.678961 -6.3125,15.78125 L 102,98.9375 c 4.3908,-5.096229 7.0625,-11.728499 7.0625,-18.9375 0,-7.049735 -2.56192,-13.515815 -6.78125,-18.5625 z M 36.3125,74.71875 C 36.095316,76.448585 35.96875,78.209633 35.96875,80 c 0,1.783206 0.135294,3.525524 0.34375,5.25 l 5.78125,-3.40625 C 42.06432,81.233466 42.03125,80.618606 42.03125,80 c 0,-0.618606 0.03307,-1.233466 0.0625,-1.84375 l -5.78125,-3.4375 z m 21.65625,11.6875 -5.375,3.15625 c 3.967599,11.32684 14.767332,19.5 27.40625,19.5 2.053936,0 4.061579,-0.2445 6,-0.65625 l 0,-6.25 c -1.913494,0.50251 -3.922882,0.78125 -6,0.78125 -10.503086,0 -19.272007,-6.955609 -22.03125,-16.53125 z m -13.25,7.8125 -5.1875,3.0625 c 6.736136,15.70309 22.337802,26.75 40.46875,26.75 2.026703,0 4.018204,-0.16621 5.96875,-0.4375 l 0,-6.09375 c -1.946141,0.30711 -3.931447,0.46875 -5.96875,0.46875 -15.993149,0 -29.670521,-9.80145 -35.28125,-23.75 z m 55.78125,17.75 c -0.806277,0.51752 -1.653321,1.01208 -2.5,1.46875 l -0.03125,6.71875 c 2.91776,-1.3155 5.67807,-2.92046 8.21875,-4.8125 l -5.6875,-3.375 z"
         transform="translate(0,892.36218)"
         id="path9-1"
         inkscape:connector-curvature="0" /><path
         style="fill:#ffffff;fill-opacity:1;fill-rule:evenodd;stroke:none;display:inline;enable-background:new"
         d="M 92.03125,27.46875 92,60.53125 120,44 92.03125,27.46875 z m -63,36 L 29,96.53125 57,80 29.03125,63.46875 z M 92,100 91.96875,133.03125 119.96875,116.5 92,100 z"
         transform="translate(0,892.36218)"
         id="path5227-1"
         inkscape:connector-curvature="0" /></g><rect
       style="opacity:0.5;color:#000000;fill:none;stroke:none;stroke-width:2;marker:none;visibility:visible;display:inline;overflow:visible;enable-background:accumulate"
       id="rect3976"
       width="96"
       height="96"
       x="477.90933"
       y="33.690891"
       rx="0.6438216"
       ry="0.71497756" /></g><g
     style="font-size:12px;font-style:normal;font-variant:normal;font-weight:300;font-stretch:normal;text-align:center;line-height:125%;letter-spacing:0px;word-spacing:0px;text-anchor:middle;fill:#000000;fill-opacity:1;stroke:none;font-family:Source Sans Pro;-inkscape-font-specification:Source Sans Pro Light"
     id="text3989"><path
       d="m 145.304,77.308001 8.544,0 0,-9.408 5.184,0 0,9.408 8.544,0 0,4.896 -8.544,0 0,9.408 -5.184,0 0,-9.408 -8.544,0 0,-4.896"
       style="font-size:48px;font-weight:500;font-family:Ubuntu;-inkscape-font-specification:Ubuntu Medium"
       id="path4090" /></g><g
     style="font-size:12px;font-style:normal;font-variant:normal;font-weight:300;font-stretch:normal;text-align:center;line-height:125%;letter-spacing:0px;word-spacing:0px;text-anchor:middle;fill:#000000;fill-opacity:1;stroke:none;font-family:Source Sans Pro;-inkscape-font-specification:Source Sans Pro Light"
     id="text4001"><path
       d="m 304.44,77.308001 8.544,0 0,-9.408 5.184,0 0,9.408 8.544,0 0,4.896 -8.544,0 0,9.408 -5.184,0 0,-9.408 -8.544,0 0,-4.896"
       style="font-size:48px;font-weight:500;font-family:Ubuntu;-inkscape-font-specification:Ubuntu Medium"
       id="path4087" /></g><g
     style="font-size:12px;font-style:normal;font-variant:normal;font-weight:300;font-stretch:normal;text-align:center;line-height:125%;letter-spacing:0px;word-spacing:0px;text-anchor:middle;fill:#000000;fill-opacity:1;stroke:none;font-family:Source Sans Pro;-inkscape-font-specification:Source Sans Pro Light"
     id="text4005"><path
       d="m 477.44,82.492001 22.272,0 0,4.896 -22.272,0 0,-4.896 m 0,-10.368 22.272,0 0,4.896 -22.272,0 0,-4.896"
       style="font-size:48px;font-weight:500;font-family:Ubuntu;-inkscape-font-specification:Ubuntu Medium"
       id="path4084" /></g><rect
     style="opacity:0.20000000000000001;fill:#000000;fill-opacity:1;stroke:none;filter:url(#filter4079)"
     id="rect5679"
     width="13.9375"
     height="2.59375"
     x="4.03125"
     y="18.96875"
     rx="6.96875"
     ry="1.296875"
     transform="matrix(4.133753,0,0,2.928642,194.10472,62.405239)" /><rect
     transform="matrix(4.133753,0,0,2.928642,194.10472,62.405239)"
     ry="0.6932621"
     rx="4.8733029"
     y="19.451641"
     x="6.4260459"
     height="1.748692"
     width="10.003191"
     id="rect4073"
     style="opacity:0.02000002;fill:#000000;fill-opacity:1;stroke:none;filter:url(#filter4075)" /></svg>